<svg width="390" height="77" viewBox="0 0 390 77" fill="none" xmlns="http://www.w3.org/2000/svg">
    <mask id="mask0_231_609" style="mask-type:luminance" maskUnits="userSpaceOnUse" x="0" y="0" width="389" height="75">
        <path d="M388.439 0.29541H0.439453V74.2954H388.439V0.29541Z" fill="white"/>
    </mask>
    <g mask="url(#mask0_231_609)">
        <path fill-rule="evenodd" clip-rule="evenodd" d="M107.758 35.6908C109.528 35.6908 110.604 34.4836 110.604 32.9808C110.604 31.5026 109.528 30.2954 107.782 30.2954C106.059 30.2954 104.983 31.5026 104.983 32.9808C104.983 34.4836 106.059 35.6908 107.758 35.6908ZM195.658 65.722H199.772V30.9852H195.658V65.722ZM100.08 56.459C100.08 62.741 95.2007 66.4366 87.2119 66.4366C78.3861 66.4366 74.4395 61.0904 74.4395 56.0154H78.6731C78.6731 59.5384 81.8303 62.6918 87.1881 62.6918C92.7371 62.6918 95.7987 60.5978 95.7987 56.459C95.7987 52.5172 92.1631 51.1128 87.3077 50.3492C81.8781 49.413 75.2767 47.5652 75.2767 40.7904C75.2767 35.7892 78.6013 31.478 87.0685 31.478C94.7223 31.478 98.7885 35.4198 98.7885 41.012H94.5309C94.5309 37.6862 91.8999 35.3212 87.0207 35.3212C81.1367 35.3212 79.5103 38.0558 79.5103 40.815C79.5103 44.338 82.7871 45.8408 88.6231 46.6538C94.0287 47.5406 100.08 49.5854 100.08 56.459ZM109.839 40.5932V65.722H105.725V40.5932H109.839ZM147.534 39.8788C143.755 39.8788 140.454 42.0468 138.565 46.3334C137.297 42.0714 134.427 39.8788 130.05 39.8788C126.127 39.8788 122.898 42.2932 121.654 45.4466L121.607 40.5932H117.732V65.722H121.798V52.5172C121.798 47.3928 125.218 43.8452 128.95 43.8452C132.848 43.8452 135.216 46.3828 135.216 52.1722V65.722H139.282V52.5172C139.282 47.3928 142.703 43.8452 146.41 43.8452C150.333 43.8452 152.7 46.4074 152.7 52.1722V65.722H156.791V52.0984C156.791 44.067 153.585 39.8788 147.534 39.8788ZM168.534 74.2954H164.42V40.5932H168.367V45.964C170.065 42.4902 173.533 39.9034 177.767 39.9034C184.655 39.9034 189.798 45.8162 189.798 53.1576C189.798 60.5484 184.631 66.4366 177.815 66.4366C173.796 66.4366 170.185 64.1208 168.463 60.4746L168.534 63.3078V74.2954ZM168.51 53.1576C168.51 58.5036 172.409 62.4948 177.097 62.4948C181.785 62.4948 185.708 58.7008 185.708 53.1576C185.708 47.7378 181.857 43.8452 177.097 43.8452C172.337 43.8452 168.51 47.9594 168.51 53.1576ZM218.022 39.8788C225.054 39.8788 230.076 45.7914 230.076 52.5418C230.076 52.918 230.058 53.2412 230.024 53.8872C230.018 54.0026 230.012 54.1282 230.004 54.2662H209.77C210.272 59.3166 213.908 62.47 217.926 62.47C221.202 62.47 223.618 60.992 224.694 58.1588H229.31C227.924 62.7658 223.57 66.4118 218.022 66.4118C210.966 66.4118 205.608 60.5238 205.608 53.1576C205.608 45.8162 210.966 39.8788 218.022 39.8788ZM217.95 43.8698C214.29 43.8698 210.894 46.1856 209.96 50.5216H225.866C225.628 46.9494 222.112 43.8698 217.95 43.8698ZM236.032 65.722H240.266V53.133H248.206C248.564 53.133 248.9 53.133 249.258 53.1084L256.482 65.722H261.362L253.516 52.4678C257.798 51.2854 260.644 47.6638 260.644 42.7366C260.644 36.4298 256.148 32.217 249.856 32.217H236.032V65.722ZM240.266 49.413V36.1342H249.69C253.516 36.1342 256.41 38.9426 256.41 42.7612C256.41 46.7276 253.564 49.3884 249.76 49.413H240.266ZM277.148 39.8788C284.18 39.8788 289.202 45.7914 289.202 52.5418C289.202 52.9138 289.186 53.2338 289.152 53.8652V53.869V53.8728V53.8764V53.88L289.15 53.8836V53.8872C289.144 54.0026 289.138 54.1282 289.13 54.2662H268.896C269.398 59.3166 273.034 62.47 277.052 62.47C280.328 62.47 282.744 60.992 283.82 58.1588H288.436C287.05 62.7658 282.696 66.4118 277.148 66.4118C270.092 66.4118 264.734 60.5238 264.734 53.1576C264.734 45.8162 270.092 39.8788 277.148 39.8788ZM277.076 43.8698C273.416 43.8698 270.02 46.1856 269.086 50.5216H284.992C284.754 46.9494 281.238 43.8698 277.076 43.8698ZM294.68 74.2954H298.794V63.3078L298.722 60.4746C300.444 64.1208 304.056 66.4366 308.074 66.4366C314.89 66.4366 320.056 60.5484 320.056 53.1576C320.056 45.8162 314.914 39.9034 308.026 39.9034C303.792 39.9034 300.324 42.4902 298.626 45.964V40.5932H294.68V74.2954ZM307.356 62.4948C302.668 62.4948 298.77 58.5036 298.77 53.1576C298.77 47.9594 302.596 43.8452 307.356 43.8452C312.116 43.8452 315.966 47.7378 315.966 53.1576C315.966 58.7008 312.044 62.4948 307.356 62.4948ZM349.262 53.1576C349.262 60.5484 343.832 66.4366 336.536 66.4366C329.314 66.4366 323.86 60.5484 323.86 53.1576C323.86 45.8162 329.29 39.8788 336.536 39.8788C343.808 39.8788 349.262 45.7914 349.262 53.1576ZM327.974 53.1576C327.974 58.5036 331.73 62.4454 336.584 62.4454C341.416 62.4454 345.148 58.5036 345.148 53.1576C345.148 47.861 341.416 43.8698 336.584 43.8698C331.73 43.8698 327.974 47.861 327.974 53.1576ZM355.098 65.722H359.236V53.8968C359.236 47.8362 362.416 44.3134 366.698 44.3134H368.85V40.5932H366.482C362.942 40.5932 360.264 42.7366 359.068 46.2104V40.5932H355.098V65.722ZM388.44 65.722H383.942C380.236 65.722 376.264 64.2438 376.264 56.4096V44.3134H370.836V40.5932H376.264V33.1286L380.378 33.104V40.5932H388.44V44.3134H380.378V56.6068C380.378 61.2876 382.58 62.1252 384.756 62.1252H388.44V65.722Z" fill="white"/>
        <g opacity="0.5">
            <path d="M34.8068 6.89988C36.3177 6.27405 37.0352 4.5419 36.4093 3.03101C35.7835 1.52013 34.0513 0.802651 32.5405 1.42848C31.0296 2.05431 30.3121 3.78646 30.9379 5.29734C31.5637 6.80823 33.2959 7.52571 34.8068 6.89988Z" fill="#00BDE3"/>
            <path d="M44.9454 9.33614C46.5808 9.33614 47.9065 8.01041 47.9065 6.37504C47.9065 4.73967 46.5808 3.41394 44.9454 3.41394C43.31 3.41394 41.9843 4.73967 41.9843 6.37504C41.9843 8.01041 43.31 9.33614 44.9454 9.33614Z" fill="#00BDE3"/>
            <path d="M32.6973 60.3158C31.1864 60.9416 30.4689 62.6738 31.0947 64.1847C31.7206 65.6956 33.4527 66.413 34.9636 65.7872C36.4745 65.1614 37.192 63.4292 36.5661 61.9184C35.9403 60.4075 34.2082 59.69 32.6973 60.3158Z" fill="#00BDE3"/>
            <path d="M24.506 8.52973C25.6624 7.37335 25.6624 5.49848 24.506 4.3421C23.3496 3.18572 21.4748 3.18572 20.3184 4.3421C19.162 5.49848 19.162 7.37335 20.3184 8.52973C21.4748 9.68611 23.3496 9.68611 24.506 8.52973Z" fill="#00BDE3"/>
            <path d="M42.9998 58.686C41.8434 59.8424 41.8434 61.7172 42.9998 62.8736C44.1562 64.03 46.031 64.03 47.1874 62.8736C48.3438 61.7172 48.3438 59.8424 47.1874 58.686C46.031 57.5296 44.1562 57.5296 42.9998 58.686Z" fill="#00BDE3"/>
            <path d="M9.48081 22.4133C9.48081 20.7779 8.15508 19.4522 6.51971 19.4522C4.88433 19.4522 3.5586 20.7779 3.5586 22.4133C3.5586 24.0487 4.88433 25.3744 6.51971 25.3744C8.15508 25.3744 9.48081 24.0487 9.48081 22.4133Z" fill="#00BDE3"/>
            <path d="M58.0231 44.8022C58.0231 46.4375 59.3489 47.7633 60.9842 47.7633C62.6196 47.7633 63.9453 46.4375 63.9453 44.8022C63.9453 43.1668 62.6196 41.8411 60.9842 41.8411C59.3489 41.8411 58.0231 43.1668 58.0231 44.8022Z" fill="#00BDE3"/>
            <path d="M8.6739 42.8548C7.51752 41.6984 5.64265 41.6984 4.48627 42.8548C3.32989 44.0112 3.32989 45.886 4.48627 47.0424C5.64265 48.1988 7.51752 48.1988 8.6739 47.0424C9.83028 45.886 9.83028 44.0112 8.6739 42.8548Z" fill="#00BDE3"/>
            <path d="M58.83 24.3608C59.9864 25.5172 61.8613 25.5172 63.0176 24.3608C64.174 23.2044 64.174 21.3295 63.0177 20.1732C61.8613 19.0168 59.9864 19.0168 58.83 20.1732C57.6736 21.3295 57.6736 23.2044 58.83 24.3608Z" fill="#00BDE3"/>
            <path d="M22.5584 57.8796C20.923 57.8796 19.5973 59.2053 19.5973 60.8407C19.5973 62.476 20.923 63.8018 22.5584 63.8018C24.1938 63.8018 25.5195 62.476 25.5195 60.8407C25.5195 59.2053 24.1938 57.8796 22.5584 57.8796Z" fill="#00BDE3"/>
            <path d="M60.4605 34.6617C61.0863 36.1726 62.8185 36.8901 64.3294 36.2642C65.8402 35.6384 66.5577 33.9063 65.9319 32.3954C65.3061 30.8845 63.5739 30.167 62.063 30.7928C60.5521 31.4187 59.8347 33.1508 60.4605 34.6617Z" fill="#00BDE3"/>
            <path d="M7.04333 32.5539C6.4175 31.043 4.68534 30.3255 3.17446 30.9513C1.66357 31.5772 0.946093 33.3093 1.57192 34.8202C2.19775 36.3311 3.9299 37.0486 5.44079 36.4227C6.95167 35.7969 7.66915 34.0648 7.04333 32.5539Z" fill="#00BDE3"/>
            <path d="M51.8915 53.2384C51.2657 54.7493 51.9832 56.4814 53.4941 57.1073C55.0049 57.7331 56.7371 57.0156 57.3629 55.5047C57.9887 53.9939 57.2713 52.2617 55.7604 51.6359C54.2495 51.01 52.5173 51.7275 51.8915 53.2384Z" fill="#00BDE3"/>
            <path d="M15.6124 13.9773C16.2382 12.4664 15.5207 10.7343 14.0098 10.1084C12.499 9.48259 10.7668 10.2001 10.141 11.711C9.51515 13.2218 10.2326 14.954 11.7435 15.5798C13.2544 16.2057 14.9866 15.4882 15.6124 13.9773Z" fill="#00BDE3"/>
            <path d="M53.3815 15.4675C54.8924 16.0933 56.6245 15.3758 57.2503 13.8649C57.8762 12.3541 57.1587 10.6219 55.6478 9.99608C54.1369 9.37025 52.4048 10.0877 51.7789 11.5986C51.1531 13.1095 51.8706 14.8416 53.3815 15.4675Z" fill="#00BDE3"/>
            <path d="M14.1205 51.7477C12.6096 51.1219 10.8774 51.8394 10.2516 53.3503C9.62577 54.8612 10.3433 56.5933 11.8541 57.2191C13.365 57.845 15.0972 57.1275 15.723 55.6166C16.3488 54.1057 15.6314 52.3736 14.1205 51.7477Z" fill="#00BDE3"/>
        </g>
        <g opacity="0.7">
            <path d="M30.0522 18.1511C30.0522 20.1953 31.7094 21.8525 33.7536 21.8525C35.7978 21.8525 37.455 20.1953 37.455 18.1511C37.455 16.1069 35.7978 14.4497 33.7536 14.4497C31.7094 14.4497 30.0522 16.1069 30.0522 18.1511Z" fill="#00BDE3"/>
            <path d="M37.4536 49.0664C37.4536 47.0222 35.7964 45.3651 33.7522 45.3651C31.708 45.3651 30.0508 47.0222 30.0508 49.0664C30.0508 51.1107 31.708 52.7678 33.7522 52.7678C35.7964 52.7678 37.4536 51.1107 37.4536 49.0664Z" fill="#00BDE3"/>
            <path d="M49.2108 29.9073C47.1666 29.9073 45.5094 31.5645 45.5094 33.6087C45.5094 35.6529 47.1666 37.3101 49.2108 37.3101C51.255 37.3101 52.9122 35.6529 52.9122 33.6087C52.9122 31.5645 51.255 29.9073 49.2108 29.9073Z" fill="#00BDE3"/>
            <path d="M18.2951 37.31C20.3394 37.31 21.9965 35.6528 21.9965 33.6086C21.9965 31.5644 20.3394 29.9072 18.2951 29.9072C16.2509 29.9072 14.5938 31.5644 14.5938 33.6086C14.5938 35.6528 16.2509 37.31 18.2951 37.31Z" fill="#00BDE3"/>
            <path d="M47.3009 41.9216C45.8554 40.4761 43.5118 40.4761 42.0664 41.9216C40.6209 43.3671 40.6209 45.7107 42.0664 47.1562C43.5118 48.6016 45.8554 48.6016 47.3009 47.1562C48.7464 45.7107 48.7464 43.3671 47.3009 41.9216Z" fill="#00BDE3"/>
            <path d="M20.2049 25.2957C21.6504 26.7411 23.994 26.7411 25.4395 25.2957C26.885 23.8502 26.885 21.5066 25.4395 20.0611C23.994 18.6156 21.6504 18.6156 20.2049 20.0611C18.7595 21.5066 18.7595 23.8502 20.2049 25.2957Z" fill="#00BDE3"/>
            <path d="M42.0661 20.0612C40.6207 21.5067 40.6207 23.8503 42.0661 25.2957C43.5116 26.7412 45.8552 26.7412 47.3007 25.2957C48.7462 23.8503 48.7462 21.5067 47.3007 20.0612C45.8552 18.6157 43.5116 18.6157 42.0661 20.0612Z" fill="#00BDE3"/>
            <path d="M25.4397 47.1561C26.8852 45.7106 26.8852 43.367 25.4397 41.9215C23.9942 40.4761 21.6506 40.4761 20.2051 41.9215C18.7597 43.367 18.7597 45.7106 20.2051 47.1561C21.6506 48.6016 23.9942 48.6016 25.4397 47.1561Z" fill="#00BDE3"/>
        </g>
        <path d="M33.4394 38.2954C36.2008 38.2954 38.4394 36.0568 38.4394 33.2954C38.4394 30.534 36.2008 28.2954 33.4394 28.2954C30.678 28.2954 28.4394 30.534 28.4394 33.2954C28.4394 36.0568 30.678 38.2954 33.4394 38.2954Z" fill="#00BDE3"/>
    </g>
</svg>
