<svg width="783" height="146" viewBox="0 0 783 146" fill="none" xmlns="http://www.w3.org/2000/svg">
<path fill-rule="evenodd" clip-rule="evenodd" d="M220.743 72.3001C224.288 72.3001 226.444 69.9955 226.444 67.1265C226.444 64.3046 224.288 62 220.791 62C217.341 62 215.185 64.3046 215.185 67.1265C215.185 69.9955 217.341 72.3001 220.743 72.3001ZM396.822 129.633H405.063V63.3169H396.822V129.633ZM205.363 111.948C205.363 123.942 195.588 130.997 179.585 130.997C161.906 130.997 154 120.791 154 111.102H162.481C162.481 117.828 168.805 123.848 179.538 123.848C190.653 123.848 196.786 119.85 196.786 111.948C196.786 104.423 189.503 101.742 179.777 100.284C168.901 98.4972 155.677 94.9698 155.677 82.0358C155.677 72.4882 162.337 64.2576 179.298 64.2576C194.63 64.2576 202.775 71.7828 202.775 82.4591H194.247C194.247 76.1097 188.976 71.5946 179.202 71.5946C167.416 71.5946 164.158 76.8152 164.158 82.0829C164.158 88.8085 170.722 91.6775 182.412 93.2296C193.241 94.9227 205.363 98.8264 205.363 111.948ZM224.911 81.6596V129.633H216.67V81.6596H224.911ZM300.422 80.2956C292.851 80.2956 286.239 84.4345 282.454 92.6181C279.915 84.4815 274.165 80.2956 265.397 80.2956C257.54 80.2956 251.071 84.9048 248.58 90.925L248.484 81.6596H240.722V129.633H248.867V104.423C248.867 94.6405 255.719 87.8679 263.193 87.8679C271.003 87.8679 275.747 92.7122 275.747 103.765V129.633H283.892V104.423C283.892 94.6405 290.743 87.8679 298.17 87.8679C306.027 87.8679 310.771 92.7592 310.771 103.765V129.633H318.964V103.624C318.964 88.2912 312.544 80.2956 300.422 80.2956ZM342.489 146H334.248V81.6596H342.154V91.9127C345.556 85.2811 352.503 80.3427 360.984 80.3427C374.782 80.3427 385.084 91.6305 385.084 105.646C385.084 119.756 374.735 130.997 361.079 130.997C353.03 130.997 345.795 126.576 342.345 119.615L342.489 125.024V146ZM342.441 105.646C342.441 115.852 350.251 123.471 359.642 123.471C369.033 123.471 376.891 116.228 376.891 105.646C376.891 95.299 369.177 87.8679 359.642 87.8679C350.107 87.8679 342.441 95.7223 342.441 105.646ZM441.621 80.2956C455.707 80.2956 465.769 91.5834 465.769 104.47C465.769 105.189 465.734 105.805 465.665 107.039C465.653 107.259 465.64 107.499 465.625 107.763H425.091C426.097 117.404 433.38 123.424 441.429 123.424C447.993 123.424 452.832 120.602 454.989 115.194H464.236C461.457 123.989 452.737 130.95 441.621 130.95C427.487 130.95 416.754 119.709 416.754 105.646C416.754 91.6305 427.487 80.2956 441.621 80.2956ZM441.477 87.9149C434.146 87.9149 427.343 92.3359 425.474 100.614H457.336C456.857 93.794 449.814 87.9149 441.477 87.9149ZM477.699 129.633H486.18V105.599H502.087C502.806 105.599 503.476 105.599 504.195 105.552L518.665 129.633H528.439L512.724 104.329C521.3 102.072 527.002 95.1579 527.002 85.7514C527.002 73.7111 517.994 65.6685 505.393 65.6685H477.699V129.633ZM486.18 98.4972V73.1467H505.058C512.724 73.1467 518.521 78.5084 518.521 85.7984C518.521 93.3707 512.819 98.4502 505.201 98.4972H486.18ZM560.061 80.2956C574.148 80.2956 584.21 91.5834 584.21 104.47C584.21 105.18 584.176 105.791 584.109 106.997L584.108 107.004L584.108 107.011L584.107 107.018L584.107 107.025L584.107 107.032L584.106 107.039C584.094 107.259 584.08 107.499 584.066 107.763H543.532C544.538 117.404 551.82 123.424 559.87 123.424C566.434 123.424 571.273 120.602 573.429 115.194H582.676C579.897 123.989 571.177 130.95 560.061 130.95C545.927 130.95 535.195 119.709 535.195 105.646C535.195 91.6305 545.927 80.2956 560.061 80.2956ZM559.918 87.9149C552.587 87.9149 545.783 92.3359 543.915 100.614H575.777C575.298 93.794 568.255 87.9149 559.918 87.9149ZM595.182 146H603.423V125.024L603.279 119.615C606.729 126.576 613.963 130.997 622.013 130.997C635.668 130.997 646.017 119.756 646.017 105.646C646.017 91.6305 635.716 80.3427 621.917 80.3427C613.436 80.3427 606.489 85.2811 603.087 91.9127V81.6596H595.182V146ZM620.575 123.471C611.185 123.471 603.375 115.852 603.375 105.646C603.375 95.7223 611.041 87.8679 620.575 87.8679C630.11 87.8679 637.824 95.299 637.824 105.646C637.824 116.228 629.966 123.471 620.575 123.471ZM704.519 105.646C704.519 119.756 693.643 130.997 679.029 130.997C664.559 130.997 653.635 119.756 653.635 105.646C653.635 91.6305 664.512 80.2956 679.029 80.2956C693.595 80.2956 704.519 91.5834 704.519 105.646ZM661.876 105.646C661.876 115.852 669.399 123.377 679.125 123.377C688.803 123.377 696.278 115.852 696.278 105.646C696.278 95.5342 688.803 87.9149 679.125 87.9149C669.399 87.9149 661.876 95.5342 661.876 105.646ZM716.209 129.633H724.498V107.057C724.498 95.4871 730.871 88.7615 739.447 88.7615H743.759V81.6596H739.016C731.925 81.6596 726.559 85.7514 724.163 92.383V81.6596H716.209V129.633ZM783 129.633H773.992C766.566 129.633 758.612 126.811 758.612 111.854V88.7615H747.736V81.6596H758.612V67.4087L766.853 67.3617V81.6596H783V88.7615H766.853V112.231C766.853 121.167 771.261 122.766 775.621 122.766H783V129.633Z" fill="#171716"/>
<path fill-rule="evenodd" clip-rule="evenodd" d="M63.8997 0.90792C60.8501 2.17107 59.402 5.66718 60.6652 8.7167C61.9283 11.7662 65.4244 13.2144 68.4739 11.9512C71.5235 10.6881 72.9716 7.19194 71.7084 4.14242C70.4453 1.0929 66.9492 -0.355231 63.8997 0.90792ZM88.941 16.8697C92.2418 16.8697 94.9176 14.1939 94.9176 10.8931C94.9176 7.59236 92.2418 4.91655 88.941 4.91655C85.6403 4.91655 82.9645 7.59236 82.9645 10.8931C82.9645 14.1939 85.6403 16.8697 88.941 16.8697ZM60.9849 127.574C59.7217 124.524 61.1699 121.028 64.2194 119.765C67.2689 118.502 70.765 119.95 72.0282 122.999C73.2913 126.049 71.8432 129.545 68.7937 130.808C65.7442 132.071 62.248 130.623 60.9849 127.574ZM47.6832 15.2417C50.0172 12.9077 50.0172 9.12355 47.6832 6.78955C45.3492 4.45555 41.5651 4.45555 39.2311 6.78955C36.8971 9.12355 36.8971 12.9077 39.2311 15.2417C41.5651 17.5757 45.3492 17.5757 47.6832 15.2417ZM85.0108 124.927C82.6768 122.593 82.6768 118.809 85.0108 116.475C87.3448 114.141 91.1289 114.141 93.4629 116.475C95.7969 118.809 95.7969 122.593 93.4629 124.927C91.1289 127.261 87.3448 127.261 85.0108 124.927ZM17.3584 43.2635C17.3584 39.9627 14.6826 37.2869 11.3818 37.2869C8.08105 37.2869 5.40525 39.9627 5.40525 43.2635C5.40525 46.5642 8.08105 49.24 11.3818 49.24C14.6826 49.24 17.3584 46.5642 17.3584 43.2635ZM121.312 94.4283C118.011 94.4283 115.335 91.7525 115.335 88.4517C115.335 85.1509 118.011 82.4751 121.312 82.4751C124.612 82.4751 127.288 85.1509 127.288 88.4517C127.288 91.7525 124.612 94.4283 121.312 94.4283ZM15.7304 84.5222C13.3964 82.1882 9.61225 82.1882 7.27825 84.5222C4.94425 86.8562 4.94425 90.6404 7.27825 92.9744C9.61225 95.3084 13.3964 95.3084 15.7304 92.9744C18.0644 90.6404 18.0644 86.8562 15.7304 84.5222ZM125.416 47.1948C123.082 49.5288 119.298 49.5288 116.964 47.1948C114.63 44.8608 114.63 41.0766 116.964 38.7426C119.298 36.4086 123.082 36.4086 125.416 38.7426C127.75 41.0766 127.75 44.8608 125.416 47.1948ZM43.753 114.846C40.4522 114.846 37.7764 117.522 37.7764 120.823C37.7764 124.124 40.4522 126.8 43.753 126.8C47.0537 126.8 49.7296 124.124 49.7296 120.823C49.7296 117.522 47.0537 114.846 43.753 114.846ZM128.062 71.2198C125.013 72.483 121.517 71.0349 120.254 67.9853C118.99 64.9358 120.439 61.4397 123.488 60.1765C126.538 58.9134 130.034 60.3615 131.297 63.411C132.56 66.4606 131.112 69.9567 128.062 71.2198ZM12.4397 63.7307C11.1766 60.6812 7.68047 59.2331 4.63095 60.4962C1.58143 61.7594 0.133294 65.2555 1.39645 68.305C2.6596 71.3545 6.15571 72.8027 9.20522 71.5395C12.2547 70.2764 13.7029 66.7803 12.4397 63.7307ZM106.194 113.288C103.145 112.025 101.697 108.529 102.96 105.479C104.223 102.43 107.719 100.982 110.769 102.245C113.818 103.508 115.266 107.004 114.003 110.054C112.74 113.103 109.244 114.551 106.194 113.288ZM29.7341 26.2368C30.9973 23.1873 29.5491 19.6912 26.4996 18.428C23.4501 17.1649 19.954 18.613 18.6908 21.6625C17.4277 24.712 18.8758 28.2081 21.9253 29.4713C24.9749 30.7344 28.471 29.2863 29.7341 26.2368ZM113.777 26.0102C112.513 29.0597 109.017 30.5079 105.968 29.2447C102.918 27.9815 101.47 24.4854 102.733 21.4359C103.996 18.3864 107.493 16.9383 110.542 18.2014C113.592 19.4646 115.04 22.9607 113.777 26.0102ZM26.7252 102.471C23.6757 101.208 20.1796 102.656 18.9164 105.706C17.6533 108.755 19.1014 112.252 22.1509 113.515C25.2005 114.778 28.6966 113.33 29.9597 110.28C31.2229 107.231 29.7747 103.735 26.7252 102.471Z" fill="#90BBE0"/>
<path fill-rule="evenodd" clip-rule="evenodd" d="M58.8778 34.6589C58.8778 38.7848 62.2226 42.1296 66.3485 42.1296C70.4745 42.1296 73.8193 38.7848 73.8193 34.6589C73.8193 30.5329 70.4745 27.1881 66.3485 27.1881C62.2226 27.1881 58.8778 30.5329 58.8778 34.6589ZM73.8186 97.0573C73.8186 92.9313 70.4738 89.5865 66.3479 89.5865C62.2219 89.5865 58.8771 92.9313 58.8771 97.0573C58.8771 101.183 62.2219 104.528 66.3479 104.528C70.4738 104.528 73.8186 101.183 73.8186 97.0573ZM90.0767 65.8584C90.0767 61.7325 93.4215 58.3877 97.5474 58.3877C101.673 58.3877 105.018 61.7325 105.018 65.8584C105.018 69.9844 101.673 73.3292 97.5474 73.3292C93.4215 73.3292 90.0767 69.9844 90.0767 65.8584ZM35.1489 73.3284C39.2749 73.3284 42.6197 69.9836 42.6197 65.8577C42.6197 61.7317 39.2749 58.3869 35.149 58.3869C31.023 58.3869 27.6782 61.7317 27.6782 65.8577C27.6782 69.9836 31.023 73.3284 35.1489 73.3284ZM83.1267 82.6363C86.0442 79.7188 90.7744 79.7188 93.6919 82.6363C96.6094 85.5538 96.6094 90.284 93.6919 93.2015C90.7744 96.119 86.0442 96.119 83.1267 93.2015C80.2092 90.284 80.2092 85.5538 83.1267 82.6363ZM39.0052 49.0799C41.9227 51.9974 46.6529 51.9974 49.5704 49.0799C52.4879 46.1624 52.4879 41.4322 49.5704 38.5147C46.6529 35.5972 41.9227 35.5972 39.0052 38.5147C36.0877 41.4322 36.0877 46.1624 39.0052 49.0799ZM83.1262 49.0803C80.2087 46.1628 80.2087 41.4326 83.1262 38.5151C86.0437 35.5976 90.7739 35.5976 93.6914 38.5151C96.6089 41.4326 96.6089 46.1628 93.6914 49.0803C90.7739 51.9978 86.0437 51.9978 83.1262 49.0803ZM49.5699 93.202C52.4874 90.2845 52.4874 85.5543 49.5699 82.6368C46.6524 79.7193 41.9222 79.7193 39.0047 82.6368C36.0872 85.5543 36.0872 90.2845 39.0047 93.202C41.9222 96.1195 46.6524 96.1195 49.5699 93.202Z" fill="#65A1D5"/>
<circle cx="67" cy="66" r="7" fill="#2378C3"/>
</svg>
