<svg width="132" height="132" viewBox="0 0 132 132" fill="none" xmlns="http://www.w3.org/2000/svg">
<path fill-rule="evenodd" clip-rule="evenodd" d="M63.8999 0.90792C60.8504 2.17107 59.4022 5.66718 60.6654 8.7167C61.9286 11.7662 65.4247 13.2144 68.4742 11.9512C71.5237 10.6881 72.9718 7.19194 71.7087 4.14242C70.4455 1.0929 66.9494 -0.355231 63.8999 0.90792ZM88.9413 16.8697C92.2421 16.8697 94.9179 14.1939 94.9179 10.8931C94.9179 7.59236 92.2421 4.91655 88.9413 4.91655C85.6405 4.91655 82.9647 7.59236 82.9647 10.8931C82.9647 14.1939 85.6405 16.8697 88.9413 16.8697ZM60.9851 127.574C59.722 124.524 61.1701 121.028 64.2196 119.765C67.2692 118.502 70.7653 119.95 72.0284 122.999C73.2916 126.049 71.8434 129.545 68.7939 130.808C65.7444 132.071 62.2483 130.623 60.9851 127.574ZM47.6835 15.2417C50.0175 12.9077 50.0175 9.12355 47.6835 6.78955C45.3495 4.45555 41.5653 4.45555 39.2313 6.78955C36.8973 9.12355 36.8973 12.9077 39.2313 15.2417C41.5653 17.5757 45.3495 17.5757 47.6835 15.2417ZM85.011 124.927C82.677 122.593 82.677 118.809 85.011 116.475C87.345 114.141 91.1292 114.141 93.4632 116.475C95.7972 118.809 95.7972 122.593 93.4632 124.927C91.1292 127.261 87.345 127.261 85.011 124.927ZM17.3587 43.2635C17.3587 39.9627 14.6828 37.2869 11.3821 37.2869C8.0813 37.2869 5.40549 39.9627 5.40549 43.2635C5.40549 46.5642 8.0813 49.24 11.3821 49.24C14.6828 49.24 17.3587 46.5642 17.3587 43.2635ZM121.312 94.4283C118.011 94.4283 115.335 91.7525 115.335 88.4517C115.335 85.1509 118.011 82.4751 121.312 82.4751C124.613 82.4751 127.288 85.1509 127.288 88.4517C127.288 91.7525 124.613 94.4283 121.312 94.4283ZM15.7307 84.5222C13.3967 82.1882 9.61249 82.1882 7.27849 84.5222C4.94449 86.8562 4.94449 90.6404 7.27849 92.9744C9.61249 95.3084 13.3967 95.3084 15.7307 92.9744C18.0647 90.6404 18.0647 86.8562 15.7307 84.5222ZM125.416 47.1948C123.082 49.5288 119.298 49.5288 116.964 47.1948C114.63 44.8608 114.63 41.0766 116.964 38.7426C119.298 36.4086 123.082 36.4086 125.416 38.7426C127.75 41.0766 127.75 44.8608 125.416 47.1948ZM43.7532 114.846C40.4524 114.846 37.7766 117.522 37.7766 120.823C37.7766 124.124 40.4524 126.8 43.7532 126.8C47.054 126.8 49.7298 124.124 49.7298 120.823C49.7298 117.522 47.054 114.846 43.7532 114.846ZM128.063 71.2198C125.013 72.483 121.517 71.0348 120.254 67.9853C118.991 64.9358 120.439 61.4397 123.488 60.1765C126.538 58.9134 130.034 60.3615 131.297 63.411C132.56 66.4606 131.112 69.9567 128.063 71.2198ZM12.44 63.7308C11.1768 60.6812 7.68071 59.2331 4.63119 60.4962C1.58167 61.7594 0.133538 65.2555 1.39669 68.305C2.65984 71.3545 6.15595 72.8027 9.20547 71.5395C12.255 70.2764 13.7031 66.7803 12.44 63.7308ZM106.195 113.288C103.145 112.025 101.697 108.529 102.96 105.479C104.223 102.43 107.719 100.982 110.769 102.245C113.818 103.508 115.267 107.004 114.003 110.054C112.74 113.103 109.244 114.551 106.195 113.288ZM29.7344 26.2368C30.9975 23.1873 29.5494 19.6912 26.4999 18.428C23.4504 17.1649 19.9542 18.613 18.6911 21.6625C17.4279 24.712 18.8761 28.2081 21.9256 29.4713C24.9751 30.7344 28.4712 29.2863 29.7344 26.2368ZM113.777 26.0102C112.514 29.0597 109.018 30.5079 105.968 29.2447C102.919 27.9815 101.47 24.4854 102.734 21.4359C103.997 18.3864 107.493 16.9383 110.542 18.2014C113.592 19.4646 115.04 22.9607 113.777 26.0102ZM26.7255 102.471C23.6759 101.208 20.1798 102.656 18.9167 105.706C17.6535 108.755 19.1017 112.252 22.1512 113.515C25.2007 114.778 28.6968 113.33 29.96 110.28C31.2231 107.231 29.775 103.735 26.7255 102.471Z" fill="#90BBE0"/>
<path fill-rule="evenodd" clip-rule="evenodd" d="M58.8778 34.6589C58.8778 38.7848 62.2226 42.1296 66.3485 42.1296C70.4745 42.1296 73.8193 38.7848 73.8193 34.6589C73.8193 30.5329 70.4745 27.1881 66.3485 27.1881C62.2226 27.1881 58.8778 30.5329 58.8778 34.6589ZM73.8186 97.0573C73.8186 92.9313 70.4738 89.5865 66.3479 89.5865C62.2219 89.5865 58.8771 92.9313 58.8771 97.0573C58.8771 101.183 62.2219 104.528 66.3479 104.528C70.4738 104.528 73.8186 101.183 73.8186 97.0573ZM90.0767 65.8584C90.0767 61.7325 93.4215 58.3877 97.5474 58.3877C101.673 58.3877 105.018 61.7325 105.018 65.8584C105.018 69.9844 101.673 73.3292 97.5474 73.3292C93.4215 73.3292 90.0767 69.9844 90.0767 65.8584ZM35.1489 73.3284C39.2749 73.3284 42.6197 69.9836 42.6197 65.8577C42.6197 61.7317 39.2749 58.3869 35.149 58.3869C31.023 58.3869 27.6782 61.7317 27.6782 65.8577C27.6782 69.9836 31.023 73.3284 35.1489 73.3284ZM83.1267 82.6363C86.0442 79.7188 90.7744 79.7188 93.6919 82.6363C96.6094 85.5538 96.6094 90.284 93.6919 93.2015C90.7744 96.119 86.0442 96.119 83.1267 93.2015C80.2092 90.284 80.2092 85.5538 83.1267 82.6363ZM39.0052 49.0799C41.9227 51.9974 46.6529 51.9974 49.5704 49.0799C52.4879 46.1624 52.4879 41.4322 49.5704 38.5147C46.6529 35.5972 41.9227 35.5972 39.0052 38.5147C36.0877 41.4322 36.0877 46.1624 39.0052 49.0799ZM83.1262 49.0803C80.2087 46.1628 80.2087 41.4326 83.1262 38.5151C86.0437 35.5976 90.7739 35.5976 93.6914 38.5151C96.6089 41.4326 96.6089 46.1628 93.6914 49.0803C90.7739 51.9978 86.0437 51.9978 83.1262 49.0803ZM49.5699 93.202C52.4874 90.2845 52.4874 85.5543 49.5699 82.6368C46.6524 79.7193 41.9222 79.7193 39.0047 82.6368C36.0872 85.5543 36.0872 90.2845 39.0047 93.202C41.9222 96.1195 46.6524 96.1195 49.5699 93.202Z" fill="#65A1D5"/>
<circle cx="67" cy="66" r="7" fill="#2378C3"/>
</svg>
