<svg width="333" height="64" viewBox="0 0 333 64" fill="none" xmlns="http://www.w3.org/2000/svg">
<path fill-rule="evenodd" clip-rule="evenodd" d="M92.5433 29.7822C94.0596 29.7822 94.9817 28.7122 94.9817 27.3802C94.9817 26.07 94.0596 25 92.5638 25C91.0885 25 90.1664 26.07 90.1664 27.3802C90.1664 28.7122 91.0885 29.7822 92.5433 29.7822ZM167.846 56.4009H171.37V25.6114H167.846V56.4009ZM85.9659 48.1904C85.9659 53.7587 81.7858 57.0342 74.942 57.0342C67.3809 57.0342 64 52.2956 64 47.7973H67.6268C67.6268 50.9199 70.3316 53.715 74.9215 53.715C79.6753 53.715 82.2981 51.8589 82.2981 48.1904C82.2981 44.6965 79.1835 43.4518 75.0239 42.7749C70.3726 41.9451 64.7172 40.3074 64.7172 34.3024C64.7172 29.8695 67.5654 26.0482 74.819 26.0482C81.376 26.0482 84.8594 29.542 84.8594 34.4989H81.2121C81.2121 31.551 78.9581 29.4546 74.778 29.4546C69.7374 29.4546 68.344 31.8785 68.344 34.3242C68.344 37.4468 71.1512 38.7788 76.1509 39.4994C80.7818 40.2856 85.9659 42.098 85.9659 48.1904ZM94.326 34.1277V56.4009H90.8016V34.1277H94.326ZM126.619 33.4944C123.382 33.4944 120.554 35.416 118.935 39.2156C117.849 35.4378 115.39 33.4944 111.641 33.4944C108.28 33.4944 105.514 35.6344 104.448 38.4295L104.407 34.1277H101.088V56.4009H104.571V44.6965C104.571 40.1545 107.501 37.0101 110.698 37.0101C114.038 37.0101 116.066 39.2592 116.066 44.3908V56.4009H119.55V44.6965C119.55 40.1545 122.48 37.0101 125.656 37.0101C129.017 37.0101 131.045 39.2811 131.045 44.3908V56.4009H134.549V44.3253C134.549 37.2066 131.803 33.4944 126.619 33.4944ZM144.61 64H141.085V34.1277H144.466V38.888C145.921 35.8091 148.892 33.5162 152.519 33.5162C158.42 33.5162 162.826 38.757 162.826 45.2643C162.826 51.8152 158.4 57.0342 152.56 57.0342C149.118 57.0342 146.024 54.9815 144.548 51.7497L144.61 54.2609V64ZM144.589 45.2643C144.589 50.0028 147.929 53.5403 151.945 53.5403C155.962 53.5403 159.322 50.1775 159.322 45.2643C159.322 40.4602 156.023 37.0101 151.945 37.0101C147.868 37.0101 144.589 40.6568 144.589 45.2643ZM187.005 33.4944C193.029 33.4944 197.332 38.7352 197.332 44.7184C197.332 45.0519 197.317 45.3382 197.288 45.9109C197.283 46.0132 197.277 46.1245 197.271 46.2469H179.936C180.366 50.7234 183.48 53.5185 186.923 53.5185C189.73 53.5185 191.8 52.2083 192.722 49.6971H196.676C195.488 53.7805 191.759 57.0123 187.005 57.0123C180.96 57.0123 176.37 51.7934 176.37 45.2643C176.37 38.757 180.96 33.4944 187.005 33.4944ZM186.943 37.0319C183.808 37.0319 180.899 39.0845 180.099 42.9278H193.726C193.521 39.7615 190.509 37.0319 186.943 37.0319ZM202.434 56.4009H206.061V45.2424H212.864C213.171 45.2424 213.458 45.2424 213.765 45.2206L219.954 56.4009H224.134L217.413 44.6529C221.081 43.6047 223.519 40.3947 223.519 36.0274C223.519 30.4373 219.667 26.7032 214.278 26.7032H202.434V56.4009ZM206.061 41.9451V30.1753H214.134C217.413 30.1753 219.892 32.6646 219.892 36.0493C219.892 39.5649 217.454 41.9233 214.196 41.9451H206.061ZM237.657 33.4944C243.682 33.4944 247.985 38.7352 247.985 44.7184C247.985 45.0481 247.97 45.3317 247.942 45.8915L247.941 45.8948L247.941 45.8981L247.941 45.9013L247.941 45.9045L247.941 45.9078L247.94 45.9109C247.935 46.0132 247.929 46.1245 247.923 46.2469H230.588C231.018 50.7234 234.133 53.5185 237.575 53.5185C240.383 53.5185 242.452 52.2083 243.374 49.6971H247.329C246.141 53.7805 242.411 57.0123 237.657 57.0123C231.613 57.0123 227.023 51.7934 227.023 45.2643C227.023 38.757 231.613 33.4944 237.657 33.4944ZM237.596 37.0319C234.461 37.0319 231.551 39.0845 230.752 42.9278H244.378C244.173 39.7615 241.161 37.0319 237.596 37.0319ZM252.677 64H256.201V54.2609L256.14 51.7497C257.615 54.9815 260.709 57.0342 264.152 57.0342C269.992 57.0342 274.417 51.8152 274.417 45.2643C274.417 38.757 270.012 33.5162 264.111 33.5162C260.484 33.5162 257.513 35.8091 256.058 38.888V34.1277H252.677V64ZM263.537 53.5403C259.521 53.5403 256.181 50.0028 256.181 45.2643C256.181 40.6568 259.459 37.0101 263.537 37.0101C267.615 37.0101 270.914 40.4602 270.914 45.2643C270.914 50.1775 267.553 53.5403 263.537 53.5403ZM299.436 45.2643C299.436 51.8152 294.785 57.0342 288.535 57.0342C282.347 57.0342 277.675 51.8152 277.675 45.2643C277.675 38.757 282.327 33.4944 288.535 33.4944C294.765 33.4944 299.436 38.7352 299.436 45.2643ZM281.2 45.2643C281.2 50.0028 284.417 53.4966 288.576 53.4966C292.716 53.4966 295.912 50.0028 295.912 45.2643C295.912 40.5694 292.716 37.0319 288.576 37.0319C284.417 37.0319 281.2 40.5694 281.2 45.2643ZM304.436 56.4009H307.981V45.9194C307.981 40.5476 310.706 37.425 314.374 37.425H316.218V34.1277H314.19C311.157 34.1277 308.862 36.0274 307.838 39.1064V34.1277H304.436V56.4009ZM333 56.4009H329.148C325.972 56.4009 322.57 55.0907 322.57 48.1467V37.425H317.919V34.1277H322.57V27.5112L326.095 27.4894V34.1277H333V37.425H326.095V48.3214C326.095 52.4703 327.98 53.2128 329.844 53.2128H333V56.4009Z" fill="white"/>
<g opacity="0.5">
<circle cx="28.5404" cy="3.32252" r="2.54294" transform="rotate(-22.5 28.5404 3.32252)" fill="#00BDE3"/>
<circle cx="38.2216" cy="5.22116" r="2.54294" fill="#00BDE3"/>
<circle cx="28.676" cy="53.8931" r="2.54294" transform="rotate(157.5 28.676 53.8931)" fill="#00BDE3"/>
<circle cx="18.8692" cy="5.27319" r="2.54294" transform="rotate(-45 18.8692 5.27319)" fill="#00BDE3"/>
<circle cx="38.3472" cy="51.9424" r="2.54294" transform="rotate(135 38.3472 51.9424)" fill="#00BDE3"/>
<circle cx="5.2214" cy="18.9942" r="2.54294" transform="rotate(-90 5.2214 18.9942)" fill="#00BDE3"/>
<circle cx="51.9949" cy="38.2212" r="2.54294" transform="rotate(90 51.9949 38.2212)" fill="#00BDE3"/>
<circle cx="5.27319" cy="38.3469" r="2.54294" transform="rotate(-135 5.27319 38.3469)" fill="#00BDE3"/>
<circle cx="51.9431" cy="18.8687" r="2.54294" transform="rotate(45 51.9431 18.8687)" fill="#00BDE3"/>
<circle cx="18.9947" cy="51.9947" r="2.54294" transform="rotate(-180 18.9947 51.9947)" fill="#00BDE3"/>
<circle cx="53.8938" cy="28.5395" r="2.54294" transform="rotate(67.5 53.8938 28.5395)" fill="#00BDE3"/>
<circle cx="3.32252" cy="28.676" r="2.54294" transform="rotate(-112.5 3.32252 28.676)" fill="#00BDE3"/>
<circle cx="46.5361" cy="46.4392" r="2.54294" transform="rotate(112.5 46.5361 46.4392)" fill="#00BDE3"/>
<circle cx="10.6809" cy="10.7764" r="2.54294" transform="rotate(-67.5 10.6809 10.7764)" fill="#00BDE3"/>
<circle cx="46.4392" cy="10.6802" r="2.54294" transform="rotate(22.5 46.4392 10.6802)" fill="#00BDE3"/>
<circle cx="10.7767" cy="46.5356" r="2.54294" transform="rotate(-157.5 10.7767 46.5356)" fill="#00BDE3"/>
</g>
<g opacity="0.7">
<circle cx="28.6083" cy="15.333" r="3.17867" transform="rotate(90 28.6083 15.333)" fill="#00BDE3"/>
<circle cx="28.608" cy="41.8821" r="3.17867" transform="rotate(-90 28.608 41.8821)" fill="#00BDE3"/>
<circle cx="41.8829" cy="28.6075" r="3.17867" transform="rotate(-180 41.8829 28.6075)" fill="#00BDE3"/>
<circle cx="15.3335" cy="28.6076" r="3.17867" fill="#00BDE3"/>
<circle cx="37.9946" cy="37.9942" r="3.17867" transform="rotate(-135 37.9946 37.9942)" fill="#00BDE3"/>
<circle cx="19.2213" cy="19.2209" r="3.17867" transform="rotate(45 19.2213 19.2209)" fill="#00BDE3"/>
<circle cx="37.995" cy="19.2212" r="3.17867" transform="rotate(135 37.995 19.2212)" fill="#00BDE3"/>
<circle cx="19.2219" cy="37.9944" r="3.17867" transform="rotate(-45 19.2219 37.9944)" fill="#00BDE3"/>
</g>
<circle cx="28.5" cy="28.5" r="4.5" fill="#00BDE3"/>
</svg>
