<svg height='100px' width='100px'  fill="#000000" xmlns="http://www.w3.org/2000/svg" xmlns:xlink="http://www.w3.org/1999/xlink" version="1.1" x="0px" y="0px" viewBox="0 0 24 24" style="enable-background:new 0 0 24 24;" xml:space="preserve"><g><g><g><path d="M16.5,24c-0.076,0-0.153-0.018-0.224-0.053l-2-1c-0.188-0.094-0.297-0.294-0.273-0.502l1-9     c0.019-0.168,0.122-0.316,0.273-0.392l1.814-0.907l0.669-2.006l-4.151,0.737c-1.072,0.165-2.146,0.165-3.205,0.002L6.24,10.139     l0.669,2.006l1.814,0.907c0.151,0.076,0.255,0.224,0.273,0.392l1,9c0.023,0.208-0.086,0.409-0.273,0.502l-2,1     C7.555,24.032,7.352,24.013,7.2,23.9l-4-3c-0.101-0.075-0.169-0.185-0.191-0.308l-3-16C-0.042,4.321,0.137,4.06,0.408,4.009     C0.673,3.958,0.94,4.136,0.991,4.408l2.965,15.809l3.597,2.698l1.412-0.706l-0.932-8.383l-1.757-0.878     c-0.118-0.06-0.209-0.164-0.251-0.289l-1-3C4.97,9.491,5.007,9.307,5.122,9.173c0.115-0.134,0.295-0.198,0.466-0.166l4.979,0.884     c0.946,0.146,1.919,0.146,2.877-0.002l4.968-0.882c0.172-0.033,0.351,0.031,0.466,0.166c0.115,0.133,0.152,0.317,0.097,0.485     l-1,3c-0.042,0.125-0.133,0.229-0.251,0.289l-1.757,0.878l-0.932,8.383l1.412,0.706l3.597-2.698l2.965-15.809     c0.051-0.272,0.315-0.451,0.583-0.399c0.271,0.051,0.45,0.312,0.399,0.583l-3,16C20.969,20.715,20.9,20.825,20.8,20.9l-4,3     C16.712,23.966,16.606,24,16.5,24z"></path></g><g><path d="M12,11c-0.148,0-0.289-0.066-0.384-0.18l-2.5-3C9.025,7.711,8.985,7.569,9.005,7.429l1-7C10.04,0.183,10.251,0,10.5,0h3     c0.249,0,0.46,0.183,0.495,0.429l1,7c0.02,0.14-0.021,0.282-0.111,0.391l-2.5,3C12.289,10.934,12.148,11,12,11z M10.026,7.351     L12,9.719l1.974-2.368L13.066,1h-2.133L10.026,7.351z"></path></g><g><path d="M2.5,15.5C2.224,15.5,2,15.276,2,15V8.5L1.004,0.562C0.986,0.42,1.03,0.276,1.125,0.169S1.356,0,1.5,0h1     c0.215,0,0.406,0.138,0.475,0.342l3,9C6.062,9.604,5.92,9.887,5.658,9.974c-0.26,0.089-0.545-0.053-0.633-0.316L2.14,1H2.066     l0.93,7.438L3,15C3,15.276,2.776,15.5,2.5,15.5z"></path></g><g><path d="M21.5,15.5c-0.276,0-0.5-0.224-0.5-0.5V8.5L21.934,1H21.86l-2.886,8.658c-0.088,0.263-0.369,0.405-0.633,0.316     c-0.262-0.087-0.403-0.37-0.316-0.632l3-9C21.094,0.138,21.285,0,21.5,0h1c0.144,0,0.28,0.062,0.375,0.169     s0.139,0.251,0.121,0.393l-1,8L22,15C22,15.276,21.776,15.5,21.5,15.5z"></path></g><g><path d="M12,16c-0.054,0-0.106-0.009-0.158-0.026l-3-1c-0.262-0.087-0.403-0.37-0.316-0.632c0.089-0.262,0.372-0.401,0.633-0.316     L12,14.973l2.842-0.947c0.262-0.085,0.545,0.054,0.633,0.316c0.087,0.262-0.055,0.545-0.316,0.632l-3,1     C12.106,15.991,12.054,16,12,16z"></path></g><g><path d="M20.024,5.477c-0.133,0-0.267-0.053-0.365-0.158c-1.605-1.713-3.763-2.85-6.074-3.2     c-0.272-0.041-0.461-0.296-0.419-0.569c0.041-0.274,0.3-0.461,0.569-0.419c2.531,0.383,4.895,1.627,6.654,3.504     c0.188,0.201,0.178,0.518-0.023,0.707C20.27,5.432,20.147,5.477,20.024,5.477z"></path></g><g><path d="M4,5.451c-0.123,0-0.247-0.045-0.343-0.136c-0.201-0.19-0.21-0.506-0.021-0.707c1.757-1.861,4.11-3.096,6.627-3.477     c0.269-0.037,0.528,0.146,0.569,0.419c0.042,0.273-0.146,0.528-0.419,0.569C8.116,2.467,5.968,3.594,4.363,5.294     C4.266,5.398,4.133,5.451,4,5.451z"></path></g><g><path d="M12,24c-0.063,0-0.126-0.012-0.186-0.036l-2.5-1c-0.257-0.103-0.381-0.394-0.278-0.65     c0.103-0.257,0.394-0.381,0.649-0.279L12,22.961l2.314-0.926c0.254-0.103,0.547,0.022,0.649,0.279     c0.103,0.256-0.021,0.547-0.278,0.65l-2.5,1C12.126,23.988,12.063,24,12,24z"></path></g><g><path d="M13.5,3h-3C10.224,3,10,2.776,10,2.5S10.224,2,10.5,2h3C13.776,2,14,2.224,14,2.5S13.776,3,13.5,3z"></path></g><g><path d="M14,5h-4C9.724,5,9.5,4.776,9.5,4.5S9.724,4,10,4h4c0.276,0,0.5,0.224,0.5,0.5S14.276,5,14,5z"></path></g><g><path d="M14,7h-4C9.724,7,9.5,6.776,9.5,6.5S9.724,6,10,6h4c0.276,0,0.5,0.224,0.5,0.5S14.276,7,14,7z"></path></g><g><path d="M13.5,9h-3C10.224,9,10,8.776,10,8.5S10.224,8,10.5,8h3C13.776,8,14,8.224,14,8.5S13.776,9,13.5,9z"></path></g><g><path d="M9.5,12.585c-0.384,0-0.769-0.146-1.061-0.438l-1.793-1.793c-0.195-0.195-0.195-0.512,0-0.707s0.512-0.195,0.707,0     l1.793,1.793c0.195,0.195,0.512,0.195,0.707,0l1.293-1.293c0.195-0.195,0.512-0.195,0.707,0s0.195,0.512,0,0.707l-1.293,1.293     C10.269,12.439,9.884,12.585,9.5,12.585z"></path></g><g><path d="M14.5,12.585c-0.384,0-0.769-0.146-1.061-0.438l-1.293-1.293c-0.195-0.195-0.195-0.512,0-0.707s0.512-0.195,0.707,0     l1.293,1.293c0.195,0.195,0.512,0.195,0.707,0l1.793-1.793c0.195-0.195,0.512-0.195,0.707,0s0.195,0.512,0,0.707l-1.793,1.793     C15.269,12.439,14.884,12.585,14.5,12.585z"></path></g><g><path d="M12,24c-0.276,0-0.5-0.224-0.5-0.5v-8c0-0.276,0.224-0.5,0.5-0.5s0.5,0.224,0.5,0.5v8C12.5,23.776,12.276,24,12,24z"></path></g><g><path d="M4.5,16c-0.075,0-0.151-0.017-0.224-0.053l-2-1c-0.247-0.124-0.347-0.424-0.224-0.671     c0.124-0.247,0.425-0.345,0.671-0.224l2,1c0.247,0.124,0.347,0.424,0.224,0.671C4.859,15.899,4.683,16,4.5,16z"></path></g><g><path d="M4.5,18c-0.075,0-0.151-0.017-0.224-0.053l-1.73-0.865c-0.247-0.124-0.347-0.424-0.224-0.671     c0.125-0.247,0.425-0.345,0.671-0.224l1.73,0.865c0.247,0.124,0.347,0.424,0.224,0.671C4.859,17.899,4.683,18,4.5,18z"></path></g><g><path d="M4.5,20c-0.075,0-0.151-0.017-0.224-0.053l-1.312-0.656c-0.247-0.124-0.347-0.424-0.224-0.671     c0.125-0.247,0.424-0.345,0.671-0.224l1.312,0.656c0.247,0.124,0.347,0.424,0.224,0.671C4.859,19.899,4.683,20,4.5,20z"></path></g><g><path d="M19.5,16c-0.183,0-0.359-0.101-0.447-0.276c-0.123-0.247-0.023-0.547,0.224-0.671l2-1     c0.248-0.122,0.547-0.023,0.671,0.224c0.123,0.247,0.023,0.547-0.224,0.671l-2,1C19.651,15.983,19.575,16,19.5,16z"></path></g><g><path d="M19.5,18c-0.183,0-0.359-0.101-0.447-0.276c-0.123-0.247-0.023-0.547,0.224-0.671l1.73-0.865     c0.248-0.122,0.547-0.024,0.671,0.224c0.123,0.247,0.023,0.547-0.224,0.671l-1.73,0.865C19.651,17.983,19.575,18,19.5,18z"></path></g><g><path d="M19.5,20c-0.183,0-0.359-0.101-0.447-0.276c-0.123-0.247-0.023-0.547,0.224-0.671l1.312-0.656     c0.249-0.122,0.547-0.023,0.671,0.224c0.123,0.247,0.023,0.547-0.224,0.671l-1.312,0.656C19.651,19.983,19.575,20,19.5,20z"></path></g></g></g></svg>